<?xml version="1.0" encoding="UTF-8" standalone="no"?>
<!-- Created with Inkscape (http://www.inkscape.org/) -->

<svg
   xmlns:dc="http://purl.org/dc/elements/1.1/"
   xmlns:cc="http://creativecommons.org/ns#"
   xmlns:rdf="http://www.w3.org/1999/02/22-rdf-syntax-ns#"
   xmlns:svg="http://www.w3.org/2000/svg"
   xmlns="http://www.w3.org/2000/svg"
   xmlns:sodipodi="http://sodipodi.sourceforge.net/DTD/sodipodi-0.dtd"
   xmlns:inkscape="http://www.inkscape.org/namespaces/inkscape"
   version="1.1"
   id="svg863"
   width="124.91221"
   height="170.91882"
   viewBox="0 0 124.91221 170.91883"
   sodipodi:docname="head_back.svg"
   inkscape:version="0.92.5 (2060ec1f9f, 2020-04-08)">
  <metadata
     id="metadata869">
    <rdf:RDF>
      <cc:Work
         rdf:about="">
        <dc:format>image/svg+xml</dc:format>
        <dc:type
           rdf:resource="http://purl.org/dc/dcmitype/StillImage" />
        <dc:title></dc:title>
      </cc:Work>
    </rdf:RDF>
  </metadata>
  <defs
     id="defs867" />
  <sodipodi:namedview
     pagecolor="#ffffff"
     bordercolor="#666666"
     borderopacity="1"
     objecttolerance="10"
     gridtolerance="10"
     guidetolerance="10"
     inkscape:pageopacity="0"
     inkscape:pageshadow="2"
     inkscape:window-width="1920"
     inkscape:window-height="1017"
     id="namedview865"
     showgrid="false"
     inkscape:zoom="0.71227368"
     inkscape:cx="31.724074"
     inkscape:cy="-347.49246"
     inkscape:window-x="1912"
     inkscape:window-y="-8"
     inkscape:window-maximized="1"
     inkscape:current-layer="svg863" />
  <path
     style="fill:#4f81bd;fill-opacity:1;stroke-width:1.33333337"
     d="m 91.026283,168.76689 c 4.4,-0.82856 8.67724,-2.06412 9.504967,-2.74568 1.02824,-0.84666 1.28931,-5.78926 0.82416,-15.60298 -0.53507,-11.28879 -0.24503,-15.20736 1.35484,-18.30427 1.11961,-2.16727 2.42312,-8.14049 2.89669,-13.27382 1.6235,-17.59794 1.69146,-17.79062 6.43698,-18.25223 3.7236,-0.36221 4.74377,-1.392892 8.09468,-8.178122 2.10877,-4.27003 4.14486,-10.08044 4.52466,-12.91204 0.65623,-4.89261 0.38434,-5.3642 -5.47322,-9.493 l -6.16376,-4.34461 -0.0159,-10.07667 C 112.96508,26.712708 97.294253,6.167912 71.270953,0.86213699 51.373463,-3.194676 29.353023,7.388802 19.367463,25.808038 c -3.99067,7.36113 -7.67455,23.72183 -7.67455,34.08391 0,6.48193 -0.34921,7.33895 -3.6666599,8.99871 -9.88594,4.94601 -10.23142,7.19294 -3.27238,21.28281 4.49076,9.09236 5.3323499,10.037922 9.2723799,10.417812 2.99874,0.28914 4.34062,1.11042 4.35702,2.66667 0.14175,13.45696 4.17279,32.20838 6.93038,32.23845 0.52473,0.005 0.69326,2.5604 0.3745,5.67707 -0.31874,3.11666 -0.97682,9.97233 -1.46237,15.23482 l -0.88283,9.56816 5.22388,1.40664 c 15.18183,4.08804 44.63358,4.74055 62.45942,1.3838 z"
     id="path873"
     inkscape:label="head"
     inkscape:connector-curvature="0" />
</svg>
