<?xml version="1.0" encoding="UTF-8" standalone="no"?>
<!-- Created with Inkscape (http://www.inkscape.org/) -->

<svg
   xmlns:dc="http://purl.org/dc/elements/1.1/"
   xmlns:cc="http://creativecommons.org/ns#"
   xmlns:rdf="http://www.w3.org/1999/02/22-rdf-syntax-ns#"
   xmlns:svg="http://www.w3.org/2000/svg"
   xmlns="http://www.w3.org/2000/svg"
   xmlns:sodipodi="http://sodipodi.sourceforge.net/DTD/sodipodi-0.dtd"
   xmlns:inkscape="http://www.inkscape.org/namespaces/inkscape"
   version="1.1"
   id="svg863"
   width="183.86041"
   height="456.7421"
   viewBox="0 0 183.86041 456.74211"
   sodipodi:docname="left_arm_back.svg"
   inkscape:version="0.92.5 (2060ec1f9f, 2020-04-08)">
  <metadata
     id="metadata869">
    <rdf:RDF>
      <cc:Work
         rdf:about="">
        <dc:format>image/svg+xml</dc:format>
        <dc:type
           rdf:resource="http://purl.org/dc/dcmitype/StillImage" />
        <dc:title></dc:title>
      </cc:Work>
    </rdf:RDF>
  </metadata>
  <defs
     id="defs867" />
  <sodipodi:namedview
     pagecolor="#ffffff"
     bordercolor="#666666"
     borderopacity="1"
     objecttolerance="10"
     gridtolerance="10"
     guidetolerance="10"
     inkscape:pageopacity="0"
     inkscape:pageshadow="2"
     inkscape:window-width="1920"
     inkscape:window-height="1017"
     id="namedview865"
     showgrid="false"
     inkscape:zoom="0.71227368"
     inkscape:cx="-861.391"
     inkscape:cy="73.646245"
     inkscape:window-x="1912"
     inkscape:window-y="-8"
     inkscape:window-maximized="1"
     inkscape:current-layer="svg863" />
  <path
     style="fill:#4f81bd;fill-opacity:1;stroke-width:1.33333337"
     d="m 151.61992,455.84526 c 1.35445,-0.85882 -0.5378,-5.65461 -8.21992,-20.83277 -9.13651,-18.05172 -11.04681,-24.28074 -7.04197,-22.9621 1.48172,0.48788 4.71478,6.18664 16.7222,29.4754 6.86698,13.31875 9.54858,15.94565 12.87844,12.61579 1.97549,-1.97549 1.63945,-3.15335 -4.17807,-14.64406 -3.47949,-6.87268 -8.60689,-15.89787 -11.39423,-20.05599 -6.20353,-9.25437 -9.34034,-16.50338 -8.30684,-19.19669 0.68002,-1.77207 1.0894,-1.74219 3.27896,0.23933 1.37606,1.24531 2.50192,2.85907 2.50192,3.58614 0,1.96857 18.41282,32.39424 20.80624,34.38061 1.6931,1.40513 2.28119,1.36893 3.27496,-0.20157 0.66622,-1.05286 1.21258,-2.51427 1.21414,-3.2476 10e-4,-0.73334 -5.3319,-10.63334 -11.85214,-22 l -11.85497,-20.66667 3.43405,-1.49336 c 2.60056,-1.13089 5.23952,-1.06152 10.87256,0.28584 10.01098,2.39451 14.75216,2.30528 17.66684,-0.33247 1.34108,-1.21365 2.43832,-2.63977 2.43832,-3.16913 0,-0.52937 -2.92274,-2.21983 -6.495,-3.75657 -4.71849,-2.02984 -11.10064,-7.43323 -23.33333,-19.75498 -9.26108,-9.3285 -16.83833,-17.44505 -16.83833,-18.03678 0,-0.59174 -0.55958,-1.07588 -1.24348,-1.07588 -0.68392,0 -1.65803,-1.30611 -2.1647,-2.90247 -0.50666,-1.59636 -2.30713,-4.39713 -4.00102,-6.22392 -7.74484,-8.35247 -20.37476,-47.41986 -23.3358,-72.1833 -5.00451,-41.85314 -10.987711,-59.64974 -27.214761,-80.94837 l -7.29967,-9.58111 3.6078,-7.74708 c 3.07628,-6.60575 3.59137,-9.41675 3.49636,-19.08041 -0.16861,-17.14884 -6.79117,-36.05891 -16.50145,-47.118309 -4.0068,-4.56348 -4.00999,-4.58053 -4.05647,-21.72439 -0.0531,-19.57997 -2.35747,-34.80175 -6.49688,-42.91569 -5.09676,-9.99045 -19.38709,-23.74556 -29.96379,-28.8415199 -5.22104,-2.51554 -11.39086,-4.94591997 -13.7107202,-5.40081997 -5.013,-0.98303 -5.08982,-0.81666 -7.06441,15.29908987 -2.61604,21.35091 -0.91459,48.69521 3.29172,52.9015 2.52351,2.52352 2.51459,2.40036 2.5922,35.800139 0.0629,27.07968 0.18591,28.34154 3.7417102,38.3911 4.34542,12.2813 10.09262,23.96094 16.65074,33.83818 4.48092,6.74876 4.66119,7.43845 3.21007,12.28186 -2.27473,7.59237 -1.89573,12.76335 1.6072,21.92811 1.72956,4.52508 4.0936,11.52741 5.2534,15.56074 9.50167,33.04284 24.02333,70.01883 41.10875,104.67365 19.007,38.55243 17.84857,34.91763 16.9953,53.32635 -0.42052,9.07243 1.17164,12.92695 10.198951,24.69105 3.10531,4.04676 9.23089,13.32108 13.6124,20.60962 7.59033,12.62633 11.26449,16.89917 13.02099,15.14268 0.43761,-0.43763 -1.12607,-4.69275 -3.47486,-9.45583 -3.87282,-7.85371 -4.47514,-12.98752 -1.52374,-12.98752 0.59741,0 4.66625,7.25131 9.04185,16.11401 8.64195,17.50413 10.85092,20.05772 15.04848,17.39617 z"
     id="path881"
     inkscape:label="rightarm"
     inkscape:connector-curvature="0" />
</svg>
