<?xml version="1.0" encoding="UTF-8" standalone="no"?>
<!-- Created with Inkscape (http://www.inkscape.org/) -->

<svg
   xmlns:dc="http://purl.org/dc/elements/1.1/"
   xmlns:cc="http://creativecommons.org/ns#"
   xmlns:rdf="http://www.w3.org/1999/02/22-rdf-syntax-ns#"
   xmlns:svg="http://www.w3.org/2000/svg"
   xmlns="http://www.w3.org/2000/svg"
   xmlns:sodipodi="http://sodipodi.sourceforge.net/DTD/sodipodi-0.dtd"
   xmlns:inkscape="http://www.inkscape.org/namespaces/inkscape"
   version="1.1"
   id="svg863"
   width="151.14555"
   height="691.04816"
   viewBox="0 0 151.14555 691.04818"
   sodipodi:docname="left_leg_back.svg"
   inkscape:version="0.92.5 (2060ec1f9f, 2020-04-08)">
  <metadata
     id="metadata869">
    <rdf:RDF>
      <cc:Work
         rdf:about="">
        <dc:format>image/svg+xml</dc:format>
        <dc:type
           rdf:resource="http://purl.org/dc/dcmitype/StillImage" />
        <dc:title></dc:title>
      </cc:Work>
    </rdf:RDF>
  </metadata>
  <defs
     id="defs867" />
  <sodipodi:namedview
     pagecolor="#ffffff"
     bordercolor="#666666"
     borderopacity="1"
     objecttolerance="10"
     gridtolerance="10"
     guidetolerance="10"
     inkscape:pageopacity="0"
     inkscape:pageshadow="2"
     inkscape:window-width="1920"
     inkscape:window-height="1017"
     id="namedview865"
     showgrid="false"
     inkscape:zoom="0.71227368"
     inkscape:cx="-572.44033"
     inkscape:cy="562.9069"
     inkscape:window-x="1912"
     inkscape:window-y="-8"
     inkscape:window-maximized="1"
     inkscape:current-layer="svg863" />
  <path
     style="fill:#4f81bd;fill-opacity:1;stroke-width:1.33333337"
     d="m 127.14556,689.91851 c 3.3,-0.7423 10.05,-2.9224 15,-4.8447 7.18092,-2.7887 9,-4.0663 9,-6.3211 0,-5.9048 -11.84104,-18.9465 -26.39252,-29.0688 -6.04123,-4.2024 -13.83481,-11.5693 -20.57179,-19.4456 l -10.84594,-12.6801 -2.34896,-13.7882 c -1.29192,-7.5835 -3.05764,-20.8649 -3.92382,-29.5141 -1.48738,-14.8524 -1.4257,-16.0184 1.11028,-20.991 5.7112,-11.1984 11.20227,-32.7608 16.55631,-65.0135 2.29463,-13.8228 2.91356,-23.0044 2.89312,-42.9181 -0.0361,-35.21868 -4.36563,-57.96715 -15.74991,-82.75532 -3.043,-6.62584 -4.16158,-10.78063 -3.7692,-14 0.3069,-2.51791 0.96699,-18.32804 1.46687,-35.13364 0.68044,-22.87528 1.33487,-30.6976 2.60361,-31.12045 3.09844,-1.03268 5.28271,-7.39923 13.37706,-38.99058 11.72958,-45.77929 16.2964,-78.99232 13.75006,-99.99999 -0.75553,-6.23334 -2.33829,-19.73334 -3.51724,-30 -1.17893,-10.26667 -3.57974,-25.86667 -5.33513,-34.66667 C 106.68631,59.8069 95.36116,19.38913 90.64743,8 L 87.33637,0 78.6504,0.2009 C 50.16059,0.85985 26.47896,19.75094 8.18777,56.40971 L 0,72.81943 2.3136,82.40971 c 1.27248,5.27466 2.89663,16.49028 3.60924,24.92362 2.14493,25.38444 6.54436,56.88743 10.70659,76.66666 5.78664,27.49863 7.16848,32.90321 8.15933,31.91236 1.35103,-1.35104 2.94024,5.98343 2.76355,12.75431 -0.0861,3.3 -0.58814,17.74726 -1.1156,32.10504 -1.30772,35.59693 1.08182,55.45575 10.2008,84.7759 2.58368,8.30727 5.53066,14.96811 7.6187,17.21997 2.81271,3.03339 3.40232,4.9681 3.38859,11.11906 -0.009,4.09568 -0.75261,11.34669 -1.65215,16.11336 -0.89954,4.76666 -1.8553,11.66666 -2.12392,15.33333 -0.26862,3.66667 -1.74122,13.14712 -3.27245,21.06768 -4.94801,25.59451 -3.17229,41.39051 8.55349,76.08741 3.99839,11.8314 8.17427,25.4116 9.27975,30.1782 2.54333,10.9666 2.61492,29.2685 0.15145,38.7264 -3.78716,14.5399 -5.9653,30.315 -4.8119,34.8501 0.61876,2.433 1.51386,11.6235 1.98913,20.4235 0.75715,14.0196 4.19761,32.5843 6.82705,36.8388 0.48707,0.7881 5.76239,3.7136 11.72295,6.5012 5.96055,2.7876 14.43736,7.8349 18.83736,11.2163 11.87889,9.1289 21.32889,11.5458 34,8.6956 z"
     id="path885"
     inkscape:label="rightarm"
     inkscape:connector-curvature="0" />
</svg>
