<?xml version="1.0" encoding="UTF-8" standalone="no"?>
<!-- Created with Inkscape (http://www.inkscape.org/) -->

<svg
   xmlns:dc="http://purl.org/dc/elements/1.1/"
   xmlns:cc="http://creativecommons.org/ns#"
   xmlns:rdf="http://www.w3.org/1999/02/22-rdf-syntax-ns#"
   xmlns:svg="http://www.w3.org/2000/svg"
   xmlns="http://www.w3.org/2000/svg"
   xmlns:sodipodi="http://sodipodi.sourceforge.net/DTD/sodipodi-0.dtd"
   xmlns:inkscape="http://www.inkscape.org/namespaces/inkscape"
   version="1.1"
   id="svg863"
   width="183.37331"
   height="457.16776"
   viewBox="0 0 183.37331 457.16777"
   sodipodi:docname="right_arm_back.svg"
   inkscape:version="0.92.5 (2060ec1f9f, 2020-04-08)">
  <metadata
     id="metadata869">
    <rdf:RDF>
      <cc:Work
         rdf:about="">
        <dc:format>image/svg+xml</dc:format>
        <dc:type
           rdf:resource="http://purl.org/dc/dcmitype/StillImage" />
        <dc:title></dc:title>
      </cc:Work>
    </rdf:RDF>
  </metadata>
  <defs
     id="defs867" />
  <sodipodi:namedview
     pagecolor="#ffffff"
     bordercolor="#666666"
     borderopacity="1"
     objecttolerance="10"
     gridtolerance="10"
     guidetolerance="10"
     inkscape:pageopacity="0"
     inkscape:pageshadow="2"
     inkscape:window-width="1920"
     inkscape:window-height="1017"
     id="namedview865"
     showgrid="false"
     inkscape:zoom="0.71227368"
     inkscape:cx="-427.91807"
     inkscape:cy="-7.9924365"
     inkscape:window-x="1912"
     inkscape:window-y="-8"
     inkscape:window-maximized="1"
     inkscape:current-layer="svg863" />
  <path
     style="fill:#4f81bd;fill-opacity:1;stroke-width:1.33333337"
     d="m 35.962773,455.94339 c 1.428407,-0.76445 6.234973,-8.64701 10.681259,-17.5168 7.230636,-14.42421 8.297973,-15.91305 10.109361,-14.10165 1.811389,1.81139 1.589739,2.85135 -2.099387,9.85013 -4.294421,8.14711 -5.051466,11.15826 -2.805344,11.15826 1.73199,0 8.726383,-9.64188 12.834553,-17.69263 1.78477,-3.49761 6.61536,-10.69761 10.73464,-16 11.12426,-14.31929 12.88827,-19.03611 11.78409,-31.50976 -1.06415,-12.02164 -1.16768,-11.72661 17.123885,-48.79761 16.72413,-33.89435 35.96905,-82.60899 39.50543,-100 0.8947,-4.4 3.42212,-12.34903 5.61645,-17.66451 4.02031,-9.73864 4.49285,-16.90061 1.78288,-27.02147 -0.65048,-2.42934 -0.1048,-4.26532 1.98167,-6.66667 3.9322,-4.52576 11.35348,-17.98371 15.37609,-27.88343 6.16517,-15.17258 7.40099,-22.2646 7.10327,-40.76392 C 175.30282,87.17537 175.68092,77.10313 177.0914,74 182.1389,62.89872 184.74624,37.69367 182.63951,20.36684 181.00627,6.93424 179.00274,0 176.75488,0 c -3.89361,0 -19.58489,7.18968 -25.53064,11.69804 -8.95996,6.79388 -18.79942,19.2965 -22.07397,28.04852 -3.01819,8.06683 -6.03376,38.52916 -4.75565,48.04011 0.69169,5.1472 0.28621,6.39958 -3.66934,11.33333 -12.06564,15.04941 -17.60381,31.90368 -16.62309,50.58888 0.46839,8.92395 1.30055,12.41235 4.19737,17.59533 4.02358,7.19896 4.48256,5.57158 -4.33274,15.36246 -4.820275,5.3537 -13.060615,19.9499 -16.627885,29.45309 -5.10255,13.59316 -7.20273,23.02245 -9.47646,42.5469 -3.05502,26.2335 -11.21318,57.83915 -17.45414,67.61941 -1.036309,1.62402 -2.844537,5.78136 -4.018283,9.23855 -3.060395,9.01419 -7.655147,15.71532 -13.0702,19.06201 -2.589099,1.60015 -10.619178,9.1477 -17.84462,16.77231 -9.35186,9.86852 -14.935296,14.63372 -19.3776879,16.53796 -7.02037595,3.00928 -8.018404,6.01687 -2.787503,8.40023 2.736773,1.24696 5.571584,1.13652 13.6666669,-0.53242 9.245817,-1.90617 12.66428,-1.71717 15.899037,0.87906 0.469837,0.37709 -19.501413,35.67057 -21.100755,37.28956 -1.608618,1.62837 -1.626936,8.3438 -0.02545,9.33356 1.980079,1.22376 4.284296,-1.87947 16.098952,-21.68138 10.305981,-17.27332 13.341869,-20.77528 13.341869,-15.39014 0,2.18585 -7.008566,15.30013 -14.412688,26.96872 -5.145908,8.10973 -10.920648,20.57992 -10.920648,23.58244 0,3.12655 3.826112,3.82413 6.701628,1.22182 1.431269,-1.29528 6.870797,-10.51805 12.087839,-20.49504 10.81043,-20.6737 12.631524,-23.20029 14.052696,-19.49677 0.650006,1.69388 -2.047959,8.15947 -8.74225,20.95049 -10.359532,19.79433 -11.338817,24.94711 -3.994165,21.01636 z"
     id="path883"
     inkscape:label="leftarm"
     inkscape:connector-curvature="0" />
</svg>
