<?xml version="1.0" encoding="UTF-8" standalone="no"?>
<!-- Created with Inkscape (http://www.inkscape.org/) -->

<svg
   version="1.1"
   id="svg2"
   width="46.436699"
   height="46.92963"
   viewBox="0 0 46.436699 46.929632"
   sodipodi:docname="genitals_front.svg"
   inkscape:version="1.1 (ce6663b3b7, 2021-05-25)"
   xmlns:inkscape="http://www.inkscape.org/namespaces/inkscape"
   xmlns:sodipodi="http://sodipodi.sourceforge.net/DTD/sodipodi-0.dtd"
   xmlns="http://www.w3.org/2000/svg"
   xmlns:svg="http://www.w3.org/2000/svg"
   xmlns:rdf="http://www.w3.org/1999/02/22-rdf-syntax-ns#"
   xmlns:cc="http://creativecommons.org/ns#"
   xmlns:dc="http://purl.org/dc/elements/1.1/">
  <metadata
     id="metadata8">
    <rdf:RDF>
      <cc:Work
         rdf:about="">
        <dc:format>image/svg+xml</dc:format>
        <dc:type
           rdf:resource="http://purl.org/dc/dcmitype/StillImage" />
      </cc:Work>
    </rdf:RDF>
  </metadata>
  <defs
     id="defs6" />
  <sodipodi:namedview
     pagecolor="#ffffff"
     bordercolor="#666666"
     borderopacity="1"
     objecttolerance="10"
     gridtolerance="10"
     guidetolerance="10"
     inkscape:pageopacity="0"
     inkscape:pageshadow="2"
     inkscape:window-width="1294"
     inkscape:window-height="704"
     id="namedview4"
     showgrid="false"
     inkscape:zoom="0.71227368"
     inkscape:cx="-73.707623"
     inkscape:cy="310.97597"
     inkscape:window-x="0"
     inkscape:window-y="0"
     inkscape:window-maximized="1"
     inkscape:current-layer="svg2"
     inkscape:pagecheckerboard="0" />
  <path
     style="display:none;fill:#4f81bd;fill-opacity:1;stroke-width:1.33333"
     d="m -94.452912,662.72335 c 3.95221,-1.1737 10.91324,-5.12 16.50824,-9.3588 5.32093,-4.0312 13.18221,-8.6084 17.46952,-10.1716 4.2873,-1.5632 8.90241,-4.25 10.2558,-5.9705 3.86652,-4.9155 7.02489,-20.5152 8.29873,-40.9886 2.04943,-32.9389 1.89373,-38.4409 -1.29767,-45.8595 -6.95344,-16.1637 -5.11845,-36.7645 6.32514,-71.0103 13.75332,-41.1579 14.74981,-52.2118 8.00877,-88.84034 -2.36031,-12.82518 -4.15953,-27.29355 -4.26636,-34.30791 -0.16031,-10.52544 0.274,-13.09961 3.2838,-19.46304 5.2698,-11.1416 11.37636,-32.18563 14.509,-50 3.2956,-18.74099 3.98375,-59.25802 1.32152,-77.80857 -1.57861,-10.99988 -1.55545,-11.20473 1.81733,-16.07167 1.87899,-2.71136 3.4163405,-6.10845 3.4163405,-7.54908 0,-1.44062 1.4947,-9.20838 3.32158,-17.26166 4.90554996,-21.62488 9.62164,-49.75627 11.50755,-68.64235 1.56153,-15.6378 1.77836,-36.7462 0.42532,-41.40561 -0.33099,-1.13976 -5.24863,-4.93743 -10.92812,-8.43925 C -25.655092,36.51629 -44.016582,20.27451 -52.886862,6.7527696 c -2.88641,-4.4 -7.08353,-10.7 -9.32695,-14 -7.49121,-11.0194096 -10.58894,-16.1074896 -10.58894,-17.3925496 0,-0.70076 -1.15142,-1.27412 -2.5587,-1.27412 -2.61156,0 -3.83868,3.3938 -6.74949,18.6666696 -0.62893,3.3 -3.58261,14.7 -6.56375,25.3333304 -7.49826,26.74551 -10.13981,40.26776 -14.195248,72.66667 -4.24965,33.95044 -4.36448,47.46069 -0.61761,72.66666 4.455648,29.97417 16.781758,76.23461 24.691038,92.66667 1.47477,3.06394 2.06628,12.24639 2.52761,39.23891 0.59209,34.64332 0.55073,35.34192 -2.44669,41.33334 -11.71947,23.4254 -17.89582,63.81965 -15.28048,99.9367 2.13113,29.4305 9.13118,64.3274 16.88133,84.1577 4.45397,11.3964 4.53828,27.1751 0.28081,52.5561 l -3.11265,18.556 -10.76141,11.9676 c -5.91879,6.5822 -16.439858,16.232 -23.380158,21.444 -13.27462,9.9688 -24.04794,21.736 -24.04794,26.2663 0,2.9707 9.63063,7.8997 21.90356,11.2102 8.95446,2.4154 13.56742,2.4091 21.779618,-0.03 z"
     id="rightleg" />
  <path
     style="display:none;fill:#4f81bd;fill-opacity:1;stroke-width:1.33333"
     d="m 156.53058,663.33795 c 3.3,-0.7423 10.05,-2.9224 15,-4.8447 7.18092,-2.7887 9,-4.0663 9,-6.3211 0,-5.9048 -11.84104,-18.9465 -26.39252,-29.0688 -6.04123,-4.2024 -13.83481,-11.5693 -20.57179,-19.4456 l -10.84594,-12.6801 -2.34896,-13.7882 c -1.29192,-7.5835 -3.05764,-20.8649 -3.92382,-29.5141 -1.48738,-14.8524 -1.4257,-16.0184 1.11028,-20.991 5.7112,-11.1984 11.20227,-32.7608 16.55631,-65.0135 2.29463,-13.8228 2.91356,-23.0044 2.89312,-42.9181 -0.0361,-35.21868 -4.36563,-57.96715 -15.74991,-82.75532 -3.043,-6.62584 -4.16158,-10.78063 -3.7692,-14 0.3069,-2.51791 0.96699,-18.32804 1.46687,-35.13364 0.68044,-22.87528 1.33487,-30.6976 2.60361,-31.12045 3.09844,-1.03268 5.28271,-7.39923 13.37706,-38.99058 11.72958,-45.77929 16.2964,-78.99232 13.75006,-99.99999 -0.75553,-6.23334 -2.33829,-19.73334 -3.51724,-30 -2.82733,-24.62154 -7.09205,-45.44431 -15.29249,-74.66667 -3.70423,-13.2000004 -7.0584,-26.66569 -7.45373,-29.92377 -0.82278,-6.78064 -1.40952,-8.07623 -3.65758,-8.07623 -1.48737,0 -4.14145,3.74902 -21.410212,30.2428896 C 90.117308,15.43237 68.872628,36.19146 57.197248,43.56839 c -4.4,2.78008 -11.21815,7.63387 -15.15143,10.7862 l -7.15143,5.73151 0.73636,18 c 0.405,9.9 1.98535,27.3 3.51188,38.66667 4.03964,30.07934 13.231,74.37917 15.054,72.55615 1.33142,-1.33141 2.91608,6.05631 2.7407,12.77718 -0.0861,3.3 -0.58814,17.74726 -1.1156,32.10504 -1.30772,35.59693 1.08182,55.45575 10.2008,84.7759 2.58368,8.30727 5.53066,14.96811 7.6187,17.21997 2.81271,3.03339 3.40232,4.9681 3.38859,11.11906 -0.009,4.09568 -0.75261,11.34669 -1.65215,16.11336 -0.89954,4.76666 -1.8553,11.66666 -2.12392,15.33333 -0.26862,3.66667 -1.74122,13.14712 -3.27245,21.06768 -4.94801,25.59451 -3.17229,41.39051 8.55349,76.08741 3.99839,11.8314 8.17427,25.4116 9.27975,30.1782 2.54333,10.9666 2.61492,29.2685 0.15145,38.7264 -3.78716,14.5399 -5.9653,30.315 -4.8119,34.8501 0.61876,2.433 1.51386,11.6235 1.98913,20.4235 0.75715,14.0196 4.19761,32.5843 6.82705,36.8388 0.48707,0.7881 5.76239,3.7136 11.722952,6.5012 5.96055,2.7876 14.43736,7.8349 18.83736,11.2163 11.87889,9.1289 21.32889,11.5458 34,8.6956 z"
     id="leftleg" />
  <path
     style="display:none;fill:#4f81bd;fill-opacity:1;stroke-width:1.33333"
     d="m -231.36367,135.36283 c 1.4284,-0.76445 6.23497,-8.64701 10.68126,-17.5168 7.23063,-14.42421 8.29797,-15.91305 10.10936,-14.10165 1.81139,1.81139 1.58974,2.85135 -2.09939,9.85013 -4.29442,8.14711 -5.05147,11.15826 -2.80534,11.15826 1.73199,0 8.72638,-9.64188 12.83455,-17.69263 1.78477,-3.49761 6.61536,-10.69761 10.73464,-16 11.12426,-14.31929 12.88827,-19.03611 11.78409,-31.50976 -1.06415,-12.02164 -1.16768,-11.72661 17.12388,-48.79761 16.72413,-33.89435 35.96905,-82.60899 39.50543,-100 0.8947,-4.4 3.42212,-12.34903 5.61645,-17.66451 4.02031,-9.73864 4.49285,-16.90061 1.78288,-27.02147 -0.65048,-2.42934 -0.1048,-4.26532 1.98167,-6.66667 3.9322,-4.52576 11.35348,-17.98371 15.376088,-27.88343 6.16517,-15.17258 7.40099,-22.2646 7.10327,-40.76392 -0.3888,-24.15796 -0.0107,-34.2302 1.39978,-37.33333 5.0475,-11.10128 7.65484,-36.30633 5.54811,-53.63316 -1.63324,-13.4326 -3.63677,-20.36684 -5.88463,-20.36684 -3.89361,0 -19.584888,7.18968 -25.530638,11.69804 -8.95996,6.79388 -18.79942,19.2965 -22.07397,28.04852 -3.01819,8.06683 -6.03376,38.52916 -4.75565,48.04011 0.69169,5.1472 0.28621,6.39958 -3.66934,11.33333 -12.06564,15.04941 -17.60381,31.90368 -16.62309,50.58888 0.46839,8.92395 1.30055,12.41235 4.19737,17.59533 4.02358,7.19896 4.48256,5.57158 -4.33274,15.36246 -4.82027,5.3537 -13.06061,19.9499 -16.62788,29.45309 -5.10255,13.59316 -7.20273,23.02245 -9.47646,42.5469 -3.05502,26.2335 -11.21318,57.8391496 -17.45414,67.6194096 -1.03631,1.62402 -2.84454,5.78136 -4.01828,9.2385504 -3.0604,9.01419 -7.65515,15.71532 -13.0702,19.06201 -2.5891,1.60015 -10.61918,9.1477 -17.84462,16.77231 -9.35186,9.86852 -14.9353,14.63372 -19.37769,16.53796 -7.02038,3.00928 -8.01841,6.01687 -2.78751,8.40023 2.73678,1.24696 5.57159,1.13652 13.66667,-0.53242 9.24582,-1.90617 12.66428,-1.71717 15.89904,0.87906 0.46984,0.37709 -19.50141,35.67057 -21.10076,37.28956 -1.60861,1.62837 -1.62693,8.3438 -0.0255,9.33356 1.98008,1.22376 4.2843,-1.87947 16.09896,-21.68138 10.30598,-17.27332 13.34186,-20.77528 13.34186,-15.39014 0,2.18585 -7.00856,15.30013 -14.41268,26.96872 -5.14591,8.10973 -10.92065,20.57992 -10.92065,23.58244 0,3.12655 3.82611,3.82413 6.70163,1.22182 1.43127,-1.29528 6.87079,-10.51805 12.08784,-20.49504 10.81043,-20.6737 12.63152,-23.20029 14.05269,-19.49677 0.65001,1.69388 -2.04796,8.15947 -8.74225,20.95049 -10.35953,19.79433 -11.33882,24.94711 -3.99416,21.01636 z"
     id="rightarm" />
  <path
     style="display:none;fill:#4f81bd;fill-opacity:1;stroke-width:1.33333"
     d="m 277.62342,135.59628 c 1.35445,-0.85882 -0.5378,-5.65461 -8.21992,-20.83277 -9.13651,-18.05172 -11.04681,-24.28074 -7.04197,-22.9621 1.48172,0.48788 4.71478,6.18664 16.7222,29.4754 6.86698,13.31875 9.54858,15.94565 12.87844,12.61579 1.97549,-1.97549 1.63945,-3.15335 -4.17807,-14.64406 -3.47949,-6.87268 -8.60689,-15.89787 -11.39423,-20.05599 -6.20353,-9.25437 -9.34034,-16.50338 -8.30684,-19.19669 0.68002,-1.77207 1.0894,-1.74219 3.27896,0.23933 1.37606,1.24531 2.50192,2.85907 2.50192,3.58614 0,1.96857 18.41282,32.39424 20.80624,34.38061 1.6931,1.40513 2.28119,1.36893 3.27496,-0.20157 0.66622,-1.05286 1.21258,-2.51427 1.21414,-3.2476 0.001,-0.73334 -5.3319,-10.63334 -11.85214,-22 l -11.85497,-20.66667 3.43405,-1.49336 c 2.60056,-1.13089 5.23952,-1.06152 10.87256,0.28584 10.01098,2.39451 14.75216,2.30528 17.66684,-0.33247 1.34108,-1.21365 2.43832,-2.63977 2.43832,-3.16913 0,-0.52937 -2.92274,-2.21983 -6.495,-3.75657 -4.71849,-2.02984 -11.10064,-7.43323 -23.33333,-19.75498 -9.26108,-9.3285 -16.83833,-17.44505 -16.83833,-18.03678 0,-0.59174 -0.55958,-1.07588 -1.24348,-1.07588 -0.68392,0 -1.65803,-1.30611 -2.1647,-2.90247 -0.50666,-1.59636 -2.30713,-4.39713 -4.00102,-6.22392 -7.74484,-8.3524704 -20.37476,-47.41986 -23.3358,-72.1833 -5.00451,-41.85314 -10.98771,-59.64974 -27.21476,-80.94837 l -7.29967,-9.58111 3.6078,-7.74708 c 3.07628,-6.60575 3.59137,-9.41675 3.49636,-19.08041 -0.16861,-17.14884 -6.79117,-36.05891 -16.50145,-47.11831 -4.0068,-4.56348 -4.00999,-4.58053 -4.05647,-21.72439 -0.0531,-19.57997 -2.35747,-34.80175 -6.49688,-42.91569 -5.09676,-9.99045 -19.38709,-23.74556 -29.96379,-28.84152 -5.22104,-2.51554 -11.39086,-4.94592 -13.71072,-5.40082 -5.013,-0.98303 -5.08982,-0.81666 -7.06441,15.29909 -2.61604,21.35091 -0.91459,48.69521 3.29172,52.9015 2.52351,2.52352 2.51459,2.40036 2.5922,35.80014 0.0629,27.07968 0.18591,28.34154 3.74171,38.3911 4.34542,12.2813 10.09262,23.96094 16.65074,33.83818 4.48092,6.74876 4.66119,7.43845 3.21007,12.28186 -2.27473,7.59237 -1.89573,12.76335 1.6072,21.92811 1.72956,4.52508 4.0936,11.52741 5.2534,15.56074 9.50167,33.04284 24.02333,70.01883 41.10875,104.67365 19.007,38.55243 17.84857,34.91763 16.9953,53.32635 -0.42052,9.07243 1.17164,12.92695 10.19895,24.69105 3.10531,4.04676 9.23089,13.32108 13.6124,20.60962 7.59033,12.62633 11.26449,16.89917 13.02099,15.14268 0.43761,-0.43763 -1.12607,-4.69275 -3.47486,-9.45583 -3.87282,-7.85371 -4.47514,-12.98752 -1.52374,-12.98752 0.59741,0 4.66625,7.25131 9.04185,16.11401 8.64195,17.50413 10.85092,20.05772 15.04848,17.39617 z"
     id="leftarm" />
  <path
     style="fill:#4f81bd;fill-opacity:1;stroke-width:1.33333"
     d="m 37.578268,44.23381 c 6.3791,-3.29875 8.91607,-8.08826 8.85744,-16.72182 C 46.351808,15.15398 38.893808,4.3929696 27.897778,0.7639396 14.961188,-3.5055104 0.02080846,10.76958 4.8460141e-5,27.41943 -0.01325154,37.62154 2.7090485,42.09014 10.714408,45.01059 c 7.80114,2.84595 20.5724,2.47667 26.86386,-0.77678 z"
     id="genitals" />
  <path
     style="display:none;fill:#4f81bd;fill-opacity:1;stroke-width:1.33333"
     d="m -5.4236915,26.41406 c 0.0363,-9.25015 0.62975,-12.76404 2.87026,-16.9946304 5.42288,-10.23967 13.9770995,-15.33333 25.7506795,-15.33333 17.58214,0 27.86254,10.96712 29.05886,31.0000004 0.3394,5.68333 1.0272,10.33333 1.52844,10.33333 0.50124,0 6.0763,-4.35 12.38903,-9.66666 18.65873,-15.71464 29.28153,-29.0780804 41.455242,-52.15052 l 6.23509,-11.81717 V -53.421 c 0,-10.42094 -0.8748,-19.24376 -2.77989,-28.03688 -2.96415,-13.68118 -2.74376,-17.99102 1.40099,-27.39887 1.38693,-3.14809 2.95146,-9.55689 3.47674,-14.24176 l 0.95504,-8.51795 -4.52644,0.83404 c -2.48954,0.45872 -14.426442,2.1708 -26.526442,3.80463 -18.79496,2.53783 -28.1187,2.97359 -64,2.99115 -41.51548,0.0203 -54.29894,-0.93315 -90.8299,-6.77468 l -5.1701,-0.82674 v 6.51255 c 0,7.69879 1.94139,15.21977 4.30898,16.69309 2.38342,1.48318 1.9306,21.60966 -0.80134,35.61582 -3.96872,20.34696 -2.36649,31.91826 6.99402,50.51085 11.5635,22.9683696 34.9764,48.39233 52.83168,57.3697 2.9333305,1.47484 5.3333305,2.7445 5.3333305,2.82147 0,0.0769 0.0205,-5.10765 0.0457,-11.52136 z"
     id="lowertorso" />
  <path
     style="display:none;fill:#4f81bd;fill-opacity:1;stroke-width:1.33333"
     d="m 76.530578,-131.90111 c 9.9,-1.16004 23.09141,-2.84729 29.314272,-3.74945 l 11.31425,-1.64029 0.97591,-5.31152 c 1.88554,-10.26242 2.65452,-44.134 1.33542,-58.82302 -1.06158,-11.82165 -0.9123,-17.93118 0.733,-30 1.13634,-8.33534 1.82862,-18.75517 1.53839,-23.15517 -1.01683,-15.41596 -0.29199,-56.05444 1.09991,-61.66666 1.35594,-5.46732 1.29429,-5.66667 -1.75283,-5.66667 -1.73701,0 -7.08825,-1.8 -11.89165,-4 -4.8034,-2.2 -8.97832,-4 -9.277602,-4 -0.2993,0 -8.37258,-3.64353 -17.94063,-8.09673 l -17.39648,-8.09672 -10.35931,2.43005 c -14.81132,3.4744 -54.28860954,3.24788 -67.69265,-0.38843 l -9.33333,-2.532 -21.33334,9.7607 c -11.73333,5.36838 -23.8768,10.92224 -26.98546,12.34192 -3.10868,1.41966 -7.09996,2.58121 -8.86951,2.58121 h -3.21737 l 1.95269,6.33333 c 4.34128,14.08044 3.48504,51.40431 -1.50364,65.54372 -1.91675,5.43265 -1.89387,5.53375 2.34383,10.35813 4.90549,5.58464 4.74529,3.00179 2.96252,47.76482 -0.73279,18.399 -0.57632,30.77965 0.50466,39.93278 0.86171,7.29636 1.8269,13.52627 2.14484,13.84423 1.35026,1.35024 40.04288,6.38345 67.3341105,8.75893 12.75321,1.11007 66.8645695,-0.51531 83.9999995,-2.52316 z"
     id="uppertorso"
     inkscape:connector-curvature="0" />
  <path
     style="display:none;fill:#4f81bd;fill-opacity:1;stroke-width:1.33333"
     d="m 49.197248,-348.6538 c 4.4,-0.82856 8.67724,-2.06412 9.50497,-2.74568 1.02824,-0.84666 1.28931,-5.78926 0.82416,-15.60298 -0.53507,-11.28879 -0.24503,-15.20736 1.35484,-18.30427 1.11961,-2.16727 2.42312,-8.14049 2.89669,-13.27382 1.6235,-17.59794 1.69146,-17.79062 6.43698,-18.25223 3.7236,-0.36221 4.74377,-1.39289 8.09468,-8.17812 2.10877,-4.27003 4.14486,-10.08044 4.52466,-12.91204 0.65623,-4.89261 0.38434,-5.3642 -5.47322,-9.493 l -6.16376,-4.34461 -0.0159,-10.07667 c -0.0453,-28.87076 -15.71613,-49.41556 -41.73943,-54.72133 -19.8974895,-4.05681 -41.91793,6.52666 -51.90349,24.9459 -3.99067,7.36113 -7.67455,23.72183 -7.67455,34.08391 0,6.48193 -0.34921,7.33895 -3.66666,8.99871 -9.88594,4.94601 -10.23142,7.19294 -3.27238,21.28281 4.49076,9.09236 5.33235,10.03792 9.27238,10.41781 2.99874,0.28914 4.34062,1.11042 4.35702,2.66667 0.14175,13.45696 4.17279,32.20838 6.93038,32.23845 0.52473,0.005 0.69326,2.5604 0.3745,5.67707 -0.31874,3.11666 -0.97682,9.97233 -1.46237,15.23482 l -0.88283,9.56816 5.22388,1.40664 c 15.1818305,4.08804 44.63358,4.74055 62.45942,1.3838 z"
     id="head"
     inkscape:connector-curvature="0" />
</svg>
